<!--?xml version="1.0" standalone="no"?-->
              <svg id="sw-js-blob-svg" viewBox="0 0 100 100" xmlns="http://www.w3.org/2000/svg" version="1.1">
                    <defs> 
                        <linearGradient id="sw-gradient" x1="0" x2="1" y1="1" y2="0">
                            <stop id="stop1" stop-color="rgba(251, 115, 86, 1)" offset="0%"></stop>
                            <stop id="stop2" stop-color="rgba(251, 115, 86, 1)" offset="100%"></stop>
                        </linearGradient>
                    </defs>
                <path fill="url(#sw-gradient)" d="M21.5,-31.3C25.5,-26.6,24.9,-17.3,25,-9.8C25.1,-2.4,25.9,3.2,24.7,8.3C23.4,13.5,20.1,18.4,15.7,21.4C11.2,24.4,5.6,25.5,-2,28.3C-9.7,31.1,-19.3,35.5,-24.4,32.7C-29.5,29.9,-30,19.9,-32.7,10.8C-35.4,1.7,-40.3,-6.5,-37.3,-11C-34.2,-15.5,-23.3,-16.3,-15.8,-19.8C-8.3,-23.3,-4.1,-29.6,2.3,-32.8C8.7,-35.9,17.4,-36,21.5,-31.3Z" width="100%" height="100%" transform="translate(50 50)" stroke-width="0" style="transition: 0.3s;"></path>
              </svg>