<!--?xml version="1.0" standalone="no"?-->
              <svg id="sw-js-blob-svg" viewBox="0 0 100 100" xmlns="http://www.w3.org/2000/svg" version="1.1">
                    <defs> 
                        <linearGradient id="sw-gradient" x1="0" x2="1" y1="1" y2="0">
                            <stop id="stop1" stop-color="rgba(165, 235, 191, 1)" offset="0%"></stop>
                            <stop id="stop2" stop-color="rgba(165, 235, 191, 1)" offset="100%"></stop>
                        </linearGradient>
                    </defs>
                <path fill="url(#sw-gradient)" d="M16.5,-26.8C21.1,-25.9,24.4,-20.9,28.7,-15.8C33.1,-10.6,38.7,-5.3,39,0.2C39.4,5.7,34.6,11.5,30.5,17.2C26.5,23,23.2,28.7,18.2,33.8C13.3,38.9,6.6,43.3,0.5,42.5C-5.7,41.7,-11.4,35.6,-15.2,29.9C-19,24.1,-21,18.7,-23.9,13.8C-26.9,8.8,-30.9,4.4,-32.4,-0.9C-33.9,-6.2,-33,-12.4,-30,-17.3C-27.1,-22.2,-22.1,-25.8,-16.7,-26.2C-11.4,-26.6,-5.7,-23.7,0.1,-24C6,-24.2,11.9,-27.6,16.5,-26.8Z" width="100%" height="100%" transform="translate(50 50)" stroke-width="0" style="transition: 0.3s;"></path>
              </svg>