<!--?xml version="1.0" standalone="no"?-->
              <svg id="sw-js-blob-svg" viewBox="0 0 100 100" xmlns="http://www.w3.org/2000/svg" version="1.1">
                    <defs> 
                        <linearGradient id="sw-gradient" x1="0" x2="1" y1="1" y2="0">
                            <stop id="stop1" stop-color="rgba(248, 117, 55, 1)" offset="0%"></stop>
                            <stop id="stop2" stop-color="rgba(251, 168, 31, 1)" offset="100%"></stop>
                        </linearGradient>
                    </defs>
                <path fill="url(#sw-gradient)" d="M16.1,-27.7C19.4,-25.9,19.7,-18.8,22.2,-13.2C24.7,-7.7,29.4,-3.9,29.9,0.3C30.5,4.5,26.9,9,23.5,12.9C20,16.8,16.8,20.1,12.9,25.2C9,30.3,4.5,37.3,-1.6,40.1C-7.8,42.9,-15.5,41.6,-19.6,36.6C-23.8,31.6,-24.3,23,-27.6,16.2C-30.9,9.5,-37.1,4.8,-39.1,-1.1C-41,-7,-38.7,-14,-34.5,-19.2C-30.3,-24.4,-24.1,-27.8,-18,-27.9C-12,-28,-6,-25,0.2,-25.3C6.4,-25.6,12.8,-29.4,16.1,-27.7Z" width="100%" height="100%" transform="translate(50 50)" stroke-width="0" style="transition: 0.3s;"></path>
              </svg>