<!--?xml version="1.0" standalone="no"?-->
              <svg id="sw-js-blob-svg" viewBox="0 0 100 100" xmlns="http://www.w3.org/2000/svg" version="1.1">
                    <defs> 
                        <linearGradient id="sw-gradient" x1="0" x2="1" y1="1" y2="0">
                            <stop id="stop1" stop-color="rgba(248, 117, 55, 1)" offset="0%"></stop>
                            <stop id="stop2" stop-color="rgba(251, 168, 31, 1)" offset="100%"></stop>
                        </linearGradient>
                    </defs>
                <path fill="url(#sw-gradient)" d="M20.9,-33.6C26.8,-32.7,31.2,-26.6,33.5,-20.2C35.8,-13.7,36,-6.9,33.2,-1.6C30.4,3.7,24.7,7.3,20.5,10.5C16.3,13.7,13.7,16.3,10.5,17.7C7.3,19,3.7,18.9,0.4,18.2C-2.8,17.5,-5.6,16,-10.3,15.6C-14.9,15.1,-21.4,15.6,-27.2,13.2C-33,10.7,-38.1,5.4,-37.8,0.2C-37.6,-5.1,-31.9,-10.1,-26.3,-12.8C-20.7,-15.6,-15,-15.9,-10.7,-17.7C-6.3,-19.4,-3.1,-22.5,2.2,-26.3C7.5,-30,14.9,-34.4,20.9,-33.6Z" width="100%" height="100%" transform="translate(50 50)" stroke-width="0" style="transition: 0.3s;"></path>
              </svg>