<!--?xml version="1.0" standalone="no"?-->
              <svg id="sw-js-blob-svg" viewBox="0 0 100 100" xmlns="http://www.w3.org/2000/svg" version="1.1">
                    <defs> 
                        <linearGradient id="sw-gradient" x1="0" x2="1" y1="1" y2="0">
                            <stop id="stop1" stop-color="rgba(255, 208.505, 0, 1)" offset="0%"></stop>
                            <stop id="stop2" stop-color="rgba(251, 168, 31, 1)" offset="100%"></stop>
                        </linearGradient>
                    </defs>
                <path fill="url(#sw-gradient)" d="M26.2,-31.3C32.5,-26,35.1,-16.3,37,-6.4C38.9,3.5,40.1,13.7,36,20.8C31.9,27.8,22.5,31.8,15,29.4C7.5,27,2,18.4,-5.4,15.4C-12.9,12.5,-22.2,15.4,-27.1,12.8C-32,10.2,-32.5,2.2,-30,-4.1C-27.6,-10.5,-22.1,-15.1,-16.6,-20.6C-11.1,-26,-5.5,-32.3,2.2,-34.9C10,-37.6,19.9,-36.6,26.2,-31.3Z" width="100%" height="100%" transform="translate(50 50)" stroke-width="0" style="transition: 0.3s;"></path>
              </svg>